<svg width="256" height="256" viewBox="0 0 256 256" fill="none" xmlns="http://www.w3.org/2000/svg">
<g clip-path="url(#clip0_1485_8788)">
<path d="M231 0H25C11.1929 0 0 11.1929 0 25V231C0 244.807 11.1929 256 25 256H231C244.807 256 256 244.807 256 231V25C256 11.1929 244.807 0 231 0Z" fill="url(#paint0_linear_1485_8788)"/>
<path d="M210.72 33.2798H156.64C150.012 33.2798 144.64 38.6524 144.64 45.2798V133.28C144.64 139.907 150.012 145.28 156.64 145.28H210.72C217.347 145.28 222.72 139.907 222.72 133.28V45.2798C222.72 38.6524 217.347 33.2798 210.72 33.2798Z" fill="white"/>
<path d="M99.36 33.2798H45.28C38.6526 33.2798 33.28 38.6524 33.28 45.2798V197.28C33.28 203.907 38.6526 209.28 45.28 209.28H99.36C105.987 209.28 111.36 203.907 111.36 197.28V45.2798C111.36 38.6524 105.987 33.2798 99.36 33.2798Z" fill="white"/>
</g>
<defs>
<linearGradient id="paint0_linear_1485_8788" x1="12800" y1="0" x2="12800" y2="25600" gradientUnits="userSpaceOnUse">
<stop stop-color="#0091E6"/>
<stop offset="1" stop-color="#0079BF"/>
</linearGradient>
<clipPath id="clip0_1485_8788">
<rect width="256" height="256" fill="white"/>
</clipPath>
</defs>
</svg>
